#!OML:ASF E:\emotionWalksFemale\Project 1\Capture day 1\Session 1\Female1.ASF
:FULLY-SPECIFIED
:DEGREES
121
root 8.77789 15.1711 41.9066 179.374 -16.6946 -180.51
lowerback 8.55282 1.99165 0.300519
upperback -0.654644 2.67886 0.0850758
thorax -5.47065 1.30841 -0.431217
lowerneck -6.62693 9.86516 3.72004
upperneck 6.57354 12.8821 -0.634523
head 3.60307 6.44873 -0.146585
rclavicle -9.30654e-014 1.59028e-015
rhumerus -43.8474 20.8164 -99.4513
rradius 35.5586
rwrist 10.4808
rhand -7.15904 -57.1837
rfingers 7.12502
rthumb 18.7179 -86.3032
lclavicle -9.30654e-014 1.59028e-015
lhumerus -41.6082 -12.4783 94.407
lradius 39.6218
lwrist -14.4471
lhand -4.81467 -38.8438
lfingers 7.12502
lthumb 20.9715 -9.95759
rfemur -4.38351 8.17273 25.6827
rtibia 27.3365
rfoot -26.477 -31.5342
rtoes 11.4694
lfemur -10.6607 -21.7547 -23.44
ltibia 28.9998
lfoot -21.3049 5.4802
ltoes -32.6353
122
root 8.77975 15.1716 41.901 179.434 -16.7701 -180.506
lowerback 8.42721 1.99607 0.263912
upperback -0.644706 2.67991 0.067172
thorax -5.39003 1.31052 -0.424329
lowerneck -6.74539 9.85147 3.88563
upperneck 6.68791 12.8484 -0.70072
head 3.68404 6.43248 -0.184518
rclavicle 3.13396e-015 -6.06293e-015
rhumerus -43.7932 20.7533 -99.4696
rradius 35.5135
rwrist 10.5165
rhand -7.30558 -57.0563
rfingers 7.12502
rthumb 18.5769 -86.1893
lclavicle 3.13396e-015 -6.06293e-015
lhumerus -41.5519 -12.5415 94.3665
lradius 39.5725
lwrist -14.318
lhand -4.83825 -39.2488
lfingers 7.12502
lthumb 20.9488 -10.36
rfemur -4.39615 8.24086 25.7151
rtibia 27.2917
rfoot -26.4904 -31.542
rtoes 12.4685
lfemur -10.7198 -21.5447 -23.38
ltibia 28.9777
lfoot -21.3549 5.16614
ltoes -32.7374
123
root 8.77979 15.1713 41.8976 179.394 -16.7709 -180.584
lowerback 8.49083 2.02372 0.19384
upperback -0.627667 2.70686 0.0255078
thorax -5.40918 1.32483 -0.433957
lowerneck -6.72622 9.84693 3.85576
upperneck 6.68775 12.8337 -0.566689
head 3.66672 6.43001 -0.13968
rclavicle -2.30528e-014 -3.47873e-015
rhumerus -43.7667 20.6564 -99.4516
rradius 35.4953
rwrist 10.7375
rhand -7.36516 -56.8686
rfingers 7.12502
rthumb 18.5196 -86.0071
lclavicle -2.30528e-014 -3.47873e-015
lhumerus -41.62 -12.7786 94.4612
lradius 39.5057
lwrist -14.5641
lhand -5.89471 -39.39
lfingers 7.12502
lthumb 19.9336 -10.3923
rfemur -4.29808 8.21105 25.6454
rtibia 27.2563
rfoot -26.5033 -31.6311
rtoes 12.553
lfemur -10.6246 -21.4955 -23.4967
ltibia 28.9702
lfoot -21.4079 5.24367
ltoes -34.6755
124
root 8.78118 15.1719 41.8965 179.338 -16.8259 -180.558
lowerback 8.59597 2.03308 0.224107
upperback -0.620177 2.72255 0.0349344
thorax -5.4597 1.33116 -0.447121
lowerneck -6.65617 9.83339 3.70517
upperneck 6.58802 12.8224 -0.440828
head 3.59572 6.42632 -0.0849451
rclavicle 2.9417e-014 2.88238e-015
rhumerus -43.7174 20.5316 -99.3426
rradius 35.4822
rwrist 11.0071
rhand -7.28 -56.8037
rfingers 7.12502
rthumb 18.6015 -85.9344
lclavicle 2.9417e-014 2.88238e-015
lhumerus -41.6057 -12.8685 94.5076
lradius 39.6428
lwrist -14.0508
lhand -4.98098 -38.8642
lfingers 7.12502
lthumb 20.8117 -9.96037
rfemur -4.24412 8.18636 25.6961
rtibia 27.2794
rfoot -26.5987 -31.7567
rtoes 12.0878
lfemur -10.5605 -21.491 -23.4883
ltibia 28.9483
lfoot -21.3589 5.40825
ltoes -35.9526
125
root 8.78136 15.1715 41.8969 179.313 -16.8702 -180.545
lowerback 8.63853 2.01404 0.219646
upperback -0.601066 2.69537 0.0209235
thorax -5.4634 1.31738 -0.456815
lowerneck -6.4815 9.86284 3.89538
upperneck 6.34838 12.8624 -0.596504
head 3.50638 6.4456 -0.17938
rclavicle -2.12451e-015 -1.02374e-014
rhumerus -43.6624 20.5882 -99.4455
rradius 35.4214
rwrist 10.8337
rhand -7.09685 -56.959
rfingers 7.12502
rthumb 18.7777 -86.0727
lclavicle -2.12451e-015 -1.02374e-014
lhumerus -41.5589 -12.9198 94.4495
lradius 39.6796
lwrist -13.8286
lhand -4.63612 -38.5153
lfingers 7.12502
lthumb 21.143 -9.64817
rfemur -4.25148 8.16967 25.7099
rtibia 27.3343
rfoot -26.6776 -31.7597
rtoes 11.7824
lfemur -10.5122 -21.7746 -23.5014
ltibia 28.928
lfoot -21.3362 5.58828
ltoes -34.9951
126
root 8.78022 15.1692 41.8955 179.366 -16.8741 -180.635
lowerback 8.61524 2.04429 0.176221
upperback -0.5951 2.72792 -0.0363127
thorax -5.44298 1.33399 -0.495202
lowerneck -6.34529 9.85559 3.8742
upperneck 6.12434 12.8531 -0.52214
head 3.39404 6.44412 -0.169
rclavicle 1.78658e-014 8.15017e-015
rhumerus -43.6627 20.6448 -99.5571
rradius 35.3764
rwrist 10.5365
rhand -7.20164 -57.018
rfingers 7.12502
rthumb 18.6769 -86.1414
lclavicle 1.78658e-014 8.15017e-015
lhumerus -41.558 -13.0754 94.4642
lradius 39.5524
lwrist -14.198
lhand -5.35431 -38.6939
lfingers 7.12502
lthumb 20.453 -9.75109
rfemur -4.29841 8.11401 25.5914
rtibia 27.3733
rfoot -26.715 -31.6859
rtoes 12.0035
lfemur -10.5351 -22.0423 -23.6093
ltibia 28.959
lfoot -21.3798 5.67355
ltoes -33.8932
127
root 8.7797 15.1678 41.8932 179.406 -16.8308 -180.675
lowerback 8.61099 2.07992 0.163883
upperback -0.630237 2.77352 -0.0627324
thorax -5.47639 1.35652 -0.522488
lowerneck -6.26683 9.84993 3.77697
upperneck 6.07625 12.8463 -0.384093
head 3.34354 6.44403 -0.11747
rclavicle 2.41772e-014 7.95139e-016
rhumerus -43.7797 20.6031 -99.607
rradius 35.4037
rwrist 10.5233
rhand -7.41647 -56.9009
rfingers 7.12502
rthumb 18.4702 -86.044
lclavicle 2.41772e-014 7.95139e-016
lhumerus -41.6266 -13.0791 94.4762
lradius 39.4933
lwrist -14.3798
lhand -5.52503 -38.798
lfingers 7.12502
lthumb 20.2889 -9.8377
rfemur -4.34725 8.0196 25.535
rtibia 27.4174
rfoot -26.7201 -31.6108
rtoes 11.5812
lfemur -10.6042 -21.857 -23.6192
ltibia 29.026
lfoot -21.4889 5.33856
ltoes -33.6259
128
root 8.77665 15.1672 41.8958 179.359 -16.6529 -180.591
lowerback 8.71954 2.14397 0.31674
upperback -0.653753 2.87542 -0.0588358
thorax -5.55434 1.40164 -0.622559
lowerneck -6.22123 9.84777 3.86653
upperneck 6.07596 12.847 -0.509412
head 3.35182 6.44195 -0.172988
rclavicle -3.77877e-014 -2.98177e-016
rhumerus -43.843 20.5624 -99.5954
rradius 35.4615
rwrist 10.5553
rhand -7.38167 -56.8675
rfingers 7.12502
rthumb 18.5037 -86.0075
lclavicle -3.77877e-014 -2.98177e-016
lhumerus -41.6421 -13.0143 94.4945
lradius 39.5007
lwrist -14.338
lhand -5.35235 -38.6713
lfingers 7.12502
lthumb 20.4548 -9.72872
rfemur -4.39417 7.89835 25.5728
rtibia 27.4657
rfoot -26.5109 -31.4833
rtoes 10.2489
lfemur -10.6082 -21.6189 -23.5505
ltibia 29.1039
lfoot -21.5356 5.32314
ltoes -34.3833
129
root 8.77103 15.1662 41.9034 179.302 -16.3788 -180.497
lowerback 8.88624 2.22853 0.538899
upperback -0.670661 3.01171 -0.0660461
thorax -5.65312 1.46082 -0.780253
lowerneck -6.11372 9.87579 3.84166
upperneck 5.97472 12.8855 -0.444611
head 3.28989 6.4633 -0.156415
rclavicle 4.00955e-014 2.18663e-015
rhumerus -43.8549 20.6131 -99.5987
rradius 35.5189
rwrist 10.516
rhand -7.23936 -56.8328
rfingers 7.12502
rthumb 18.6406 -85.9597
lclavicle 4.00955e-014 2.18663e-015
lhumerus -41.6288 -13.004 94.5175
lradius 39.5332
lwrist -14.3068
lhand -5.18609 -38.4358
lfingers 7.12502
lthumb 20.6146 -9.51044
rfemur -4.45045 7.85638 25.5885
rtibia 27.4554
rfoot -26.0743 -31.305
rtoes 9.78782
lfemur -10.6044 -21.5652 -23.5134
ltibia 29.1788
lfoot -21.5805 5.69095
ltoes -34.2568
130
root 8.7682 15.1659 41.9075 179.305 -16.2456 -180.452
lowerback 8.94881 2.26764 0.648099
upperback -0.689434 3.07586 -0.0718171
thorax -5.70127 1.48849 -0.859345
lowerneck -5.97263 9.91742 3.78617
upperneck 5.83144 12.9394 -0.293704
head 3.19824 6.49463 -0.111125
rclavicle -8.4968e-014 7.55382e-015
rhumerus -43.8326 20.5658 -99.6119
rradius 35.4712
rwrist 10.5784
rhand -7.35281 -56.6619
rfingers 7.12502
rthumb 18.5315 -85.7992
lclavicle -8.4968e-014 7.55382e-015
lhumerus -41.614 -13.0341 94.5008
lradius 39.595
lwrist -14.0812
lhand -4.73074 -38.1988
lfingers 7.12502
lthumb 21.0521 -9.32154
rfemur -4.49765 7.82986 25.5907
rtibia 27.414
rfoot -25.8512 -31.179
rtoes 10.1786
lfemur -10.6608 -21.5424 -23.4695
ltibia 29.2333
lfoot -21.6697 5.74733
ltoes -33.3183
131
root 8.7746 15.1669 41.8942 179.321 -16.6229 -180.433
lowerback 8.73001 2.15631 0.514638
upperback -0.640694 2.91383 -0.0322747
thorax -5.53766 1.4151 -0.710813
lowerneck -6.00985 9.93124 3.88519
upperneck 5.84598 12.9531 -0.36724
head 3.22422 6.50077 -0.145747
rclavicle 5.39576e-014 2.68359e-015
rhumerus -43.7631 20.524 -99.6409
rradius 35.3487
rwrist 10.6315
rhand -7.53048 -56.5621
rfingers 7.12502
rthumb 18.3606 -85.7156
lclavicle 5.39576e-014 2.68359e-015
lhumerus -41.5652 -12.9601 94.4127
lradius 39.6758
lwrist -13.7614
lhand -3.94623 -38.3805
lfingers 7.12502
lthumb 21.8056 -9.58895
rfemur -4.35389 7.85346 25.7303
rtibia 27.3608
rfoot -26.2669 -31.4334
rtoes 11.0678
lfemur -10.653 -21.8722 -23.4069
ltibia 29.2564
lfoot -21.7034 5.63553
ltoes -33.907
132
root 8.77567 15.1661 41.8862 179.296 -16.6802 -180.429
lowerback 8.64653 2.15224 0.467389
upperback -0.590853 2.90284 -0.0182315
thorax -5.44141 1.41195 -0.663397
lowerneck -6.1241 9.92655 3.97348
upperneck 5.92343 12.9429 -0.475821
head 3.28815 6.49333 -0.184389
rclavicle -3.15633e-014 -4.37326e-015
rhumerus -43.7101 20.446 -99.6059
rradius 35.3166
rwrist 10.6704
rhand -7.53488 -56.6438
rfingers 7.12502
rthumb 18.3563 -85.7976
lclavicle -3.15633e-014 -4.37326e-015
lhumerus -41.6266 -13.0999 94.5052
lradius 39.7668
lwrist -13.9587
lhand -4.42604 -38.131
lfingers 7.12502
lthumb 21.3448 -9.28658
rfemur -4.24444 7.94934 25.7826
rtibia 27.3266
rfoot -26.4462 -31.4939
rtoes 11.6506
lfemur -10.5813 -22.1507 -23.4323
ltibia 29.2612
lfoot -21.7402 5.83977
ltoes -34.4168
